<svg width="116" height="103" viewBox="0 0 116 103" fill="none" xmlns="http://www.w3.org/2000/svg">
<path d="M111.527 54.7647C109.056 57.2351 105.051 57.2351 102.58 54.7647L61.2352 13.4194C58.7647 10.9489 58.7647 6.94351 61.2352 4.47305C63.7057 2.00258 67.7111 2.00258 70.1815 4.47305L111.527 45.8183C113.997 48.2888 113.997 52.2942 111.527 54.7647Z" fill="#DDDDDD"/>
<path d="M111.527 47.4732C113.997 49.9436 113.997 53.949 111.527 56.4195L70.1815 97.7648C67.7111 100.235 63.7057 100.235 61.2352 97.7648C58.7647 95.2943 58.7647 91.2889 61.2352 88.8185L102.58 47.4732C105.051 45.0027 109.056 45.0027 111.527 47.4732Z" fill="#DDDDDD"/>
<path d="M113 51.7378C113 55.3277 110.09 58.2378 106.5 58.2378L6.5 58.2378C2.91015 58.2378 -2.38419e-07 55.3277 -2.38419e-07 51.7378C-2.38419e-07 48.148 2.91015 45.2378 6.5 45.2378L106.5 45.2378C110.09 45.2378 113 48.148 113 51.7378Z" fill="#DDDDDD"/>
</svg>
