<svg width="116" height="103" viewBox="0 0 116 103" fill="none" xmlns="http://www.w3.org/2000/svg">
<path d="M4.47318 47.4732C6.94364 45.0027 10.9491 45.0027 13.4195 47.4732L54.7648 88.8185C57.2353 91.2889 57.2353 95.2943 54.7648 97.7648C52.2943 100.235 48.2889 100.235 45.8185 97.7648L4.47318 56.4195C2.00272 53.9491 2.00271 49.9436 4.47318 47.4732Z" fill="#DDDDDD"/>
<path d="M4.47317 54.7647C2.00271 52.2942 2.00271 48.2888 4.47317 45.8183L45.8185 4.47305C48.2889 2.00259 52.2943 2.00258 54.7648 4.47305C57.2353 6.94351 57.2353 10.9489 54.7648 13.4194L13.4195 54.7647C10.9491 57.2351 6.94364 57.2351 4.47317 54.7647Z" fill="#DDDDDD"/>
<path d="M3 50.5C3 46.9101 5.91015 44 9.5 44L109.5 44C113.09 44 116 46.9101 116 50.5C116 54.0899 113.09 57 109.5 57L9.5 57C5.91015 57 3 54.0899 3 50.5Z" fill="#DDDDDD"/>
</svg>
